<?xml version="1.0" encoding="utf-8"?>
<svg xmlns="http://www.w3.org/2000/svg" viewBox="0 0 26 26" fill="#000000"><path d="M 3 3 C 1.34375 3 0 4.34375 0 6 C 0 7.535156 1.167969 8.792969 2.65625 8.96875 L 0.40625 17.28125 C -0.507813 19.730469 1.0625 22 4.03125 22 L 21.96875 22 C 24.9375 22 26.507813 19.730469 25.59375 17.28125 L 23.34375 8.96875 C 24.832031 8.792969 26 7.535156 26 6 C 26 4.34375 24.65625 3 23 3 Z M 5.21875 5.59375 L 13 5.59375 L 13 20.40625 L 4.03125 20.40625 C 3.121094 20.40625 2.398438 20.089844 2.03125 19.5625 C 1.714844 19.105469 1.660156 18.5 1.90625 17.84375 L 1.9375 17.78125 L 1.96875 17.6875 Z M 17.28125 5.59375 L 20.78125 5.59375 L 24.03125 17.6875 L 24.0625 17.78125 L 24.09375 17.84375 C 24.339844 18.5 24.285156 19.105469 23.96875 19.5625 C 23.601563 20.089844 22.878906 20.40625 21.96875 20.40625 L 19.90625 20.40625 Z" fill="#000000"/></svg>
